inDegrees=no
num_controls=7
num_derivatives=13
num_iterations=98
num_multipliers=7
num_parameters=0
num_slacks=7
num_states=26
objective=0.589927
objective_accelerations=0.109906
objective_balance=0.003095
objective_effort=0.028181
objective_height=0.442632
objective_ligament=0.006113
solver_duration=1335.650328
status=Solve_Succeeded
success=true
DataType=double
version=3
OpenSimVersion=4.5
endheader
time	/jointset/ground_pelvis/pelvis_tilt/value	/jointset/ground_pelvis/pelvis_tx/value	/jointset/ground_pelvis/pelvis_ty/value	/jointset/hip_l/hip_flexion_l/value	/jointset/hip_l/hip_adduction_l/value	/jointset/hip_l/hip_rotation_l/value	/jointset/back/lumbar_extension/value	/jointset/patellofemoral_l/patellar_flexion_l/value	/jointset/knee_l/knee_flexion_l/value	/jointset/knee_l/knee_adduction_l/value	/jointset/knee_l/knee_rotation_l/value	/jointset/ankle_l/ankle_angle_l/value	/jointset/subtalar_l/subtalar_angle_l/value	/jointset/ground_pelvis/pelvis_tilt/speed	/jointset/ground_pelvis/pelvis_tx/speed	/jointset/ground_pelvis/pelvis_ty/speed	/jointset/hip_l/hip_flexion_l/speed	/jointset/hip_l/hip_adduction_l/speed	/jointset/hip_l/hip_rotation_l/speed	/jointset/back/lumbar_extension/speed	/jointset/patellofemoral_l/patellar_flexion_l/speed	/jointset/knee_l/knee_flexion_l/speed	/jointset/knee_l/knee_adduction_l/speed	/jointset/knee_l/knee_rotation_l/speed	/jointset/ankle_l/ankle_angle_l/speed	/jointset/subtalar_l/subtalar_angle_l/speed	/forceset/tau_hip_flexion_l	/forceset/tau_hip_adduction_l	/forceset/tau_hip_rotation_l	/forceset/tau_knee_flexion_l	/forceset/tau_ankle_angle_l	/forceset/tau_subtalar_angle_l	/forceset/tau_lumbar_extension	lambda_cid13_p0	lambda_cid13_p1	lambda_cid13_p2	lambda_cid13_p3	lambda_cid13_p4	lambda_cid13_p5	lambda_cid14_p0	/jointset/ground_pelvis/pelvis_tilt/accel	/jointset/ground_pelvis/pelvis_tx/accel	/jointset/ground_pelvis/pelvis_ty/accel	/jointset/hip_l/hip_flexion_l/accel	/jointset/hip_l/hip_adduction_l/accel	/jointset/hip_l/hip_rotation_l/accel	/jointset/back/lumbar_extension/accel	/jointset/patellofemoral_l/patellar_flexion_l/accel	/jointset/knee_l/knee_flexion_l/accel	/jointset/knee_l/knee_adduction_l/accel	/jointset/knee_l/knee_rotation_l/accel	/jointset/ankle_l/ankle_angle_l/accel	/jointset/subtalar_l/subtalar_angle_l/accel	gamma_cid13_p0	gamma_cid13_p1	gamma_cid13_p2	gamma_cid13_p3	gamma_cid13_p4	gamma_cid13_p5	gamma_cid14_p0
0.5	-0.3004404567798424	-0.03854195253866246	0.6759658025584647	1.328696917543105	-0.4439353176768044	-0.1491697750050264	-0.2589854470129027	1.18229131481329	1.18229131481343	0.005627396965665783	-0.1628806765470449	0.2640117900822606	0.05119360049091369	-0.5512192078181983	-0.1106934894049042	-0.8953149567046886	3.007400526821062	-0.2211699441181027	0.7787100549805651	-0.07136865673007987	2.938775241383748	2.938775241383758	0.533606062740707	-0.1185337472536815	0.782406767317819	0.2089086438545835	-0.1476750051952828	0.001377106024561656	-0.01317140333255884	-0.321763573698343	0.1005776413232299	0.03780130901496005	0.1569328884781694	1.056453071767697	-16.62695787397332	2.34328450627044	-20.72356143570992	-517.3919733514228	-60.5256339782753	-7.423334396774201	1.694639070651395	1.202891144947736	-0.6656792454386301	-2.229577004975394	0.6755678086514845	-0.2031852970500773	1.154830445990315	-2.222328585551911	-2.222328585551713	0.06398459845836844	0.7498948441614799	-1.500430518544175	0.09207803230846338	-5.342543257054183e-07	-4.299595035101111e-06	-2.445472355828255e-06	-1.17875684473954e-06	-4.412391404890328e-07	-2.337272771586369e-06	-3.909426257014615e-07
0.51	-0.3058665264708181	-0.0395886696614949	0.6669817012661746	1.358654630563038	-0.4461143758016348	-0.1413979510917202	-0.2596430740268741	1.211563582744976	1.211563582745003	0.0109672786458163	-0.1640328086558875	0.2717589220937866	0.05328457065806046	-0.5338965014942345	-0.09864338334394154	-0.901272135886157	2.983730404026824	-0.2146243914094985	0.7755970735449697	-0.06028183528983493	2.915284412376501	2.915284412376532	0.5342893009400076	-0.1118794033676352	0.7668888765887746	0.2092220825403194	-0.1520857464740517	0.00173840251021854	-0.01355709241569436	-0.3293888899749288	0.1010344163305836	0.03757980706426437	0.1606342929628658	0.807476877521815	-16.29915118052089	2.076267160007691	-20.72582260720648	-524.1775782892106	-60.2716443783541	-6.189597112799987	1.765862632161742	1.206807979587099	-0.5258511730513284	-2.49743498499494	0.6472675826833839	-0.3743153639296992	1.066844609197688	-2.471472073175659	-2.471472073172716	0.05769297380638193	0.624614518803061	-1.597375514045423	-0.007498015310623074	-5.392756131623256e-07	-4.450488599943331e-06	-2.716878767222871e-06	-1.251055943775548e-06	-4.424692307427297e-07	-2.629798303246526e-06	-3.784800379960041e-07
0.52	-0.3111164138547777	-0.04051473819513428	0.6579450053983599	1.388363301341356	-0.4482273346832361	-0.1336590491522013	-0.2601935855032088	1.240589139983615	1.240589139983529	0.0163114326166283	-0.1651181152542653	0.2793468937652281	0.05537698025166116	-0.5159827464145491	-0.08656377156629162	-0.9058338718096425	2.957592078498718	-0.2079500954721411	0.7721256602247532	-0.04994554920334523	2.88943310277467	2.889433102774721	0.5344605208649206	-0.1051686451625156	0.7505746993012946	0.2091965291453814	-0.1564964877528355	0.002099698995830093	-0.01394278149867497	-0.3370142062515106	0.1014911913379245	0.0373583051134956	0.164335697447557	0.5570434448149619	-15.97771360697528	1.81782823528639	-20.8056321185088	-531.0020238479718	-60.05579139356955	-5.056771568953192	1.812848821795746	1.208792288285216	-0.3865905938420927	-2.723217551748881	0.7013164544021369	-0.2748716739743411	1.004723375239282	-2.694424704468657	-2.694424704468463	-0.03841905641919299	0.761177707976099	-1.659687830231226	0.024279616173691	-5.356884897552798e-07	-4.530880516338837e-06	-2.964814597488932e-06	-1.302388047677762e-06	-4.39390048756442e-07	-2.911818757860593e-06	-3.56501275922928e-07
0.53	-0.3161842555342836	-0.04132005024962989	0.648869667804557	1.417798517672202	-0.4502730716385844	-0.1259571572087209	-0.2606445872058486	1.269344716404383	1.269344716404322	0.02165520262505761	-0.1661364332680117	0.2867678724358395	0.0574672263577763	-0.4974886907504104	-0.07451084729033584	-0.9090000176136656	2.929055342971879	-0.2011865834413313	0.7681874788297638	-0.04039389497303288	2.861317400477223	2.861317400477146	0.5342139140691164	-0.09849879598092942	0.7335028495883711	0.2087839809385164	-0.1611526927691763	0.002492726543869153	-0.01447684340774748	-0.3438098743635009	0.1005924066558002	0.03714472808578583	0.1681282458250243	-0.1294764583648289	-15.59083748745402	1.557498884421322	-20.37810861994588	-537.7080709659492	-59.7942717428734	-4.027668228241748	1.882265764484211	1.201445433649711	-0.2466697276080138	-2.978226425518023	0.6661443601148533	-0.4633676331667378	0.9095208997061879	-2.924791136313549	-2.924791136332935	-0.0303539889539477	0.6186011074768879	-1.748970692015868	-0.08322148207471115	-4.992622216621189e-07	-4.459205019125939e-06	-3.186674097295391e-06	-1.31808145754691e-06	-4.232492777657784e-07	-3.183051345880561e-06	-3.048151795509238e-07
0.54	-0.3210642402919981	-0.04200525247408608	0.6397696601219289	1.4469365016733	-0.4522507183170869	-0.118296662331375	-0.2610042454756248	1.297808206173391	1.297808206173354	0.02699399206600011	-0.1670883102730923	0.2940145251792819	0.0595515070932311	-0.4784113620558172	-0.06254180555840554	-0.910767889574717	2.898145612550381	-0.1943320401027355	0.7638462469985521	-0.03167686263156099	2.83101577242254	2.831015772422333	0.5334644073615912	-0.09188044343026351	0.7157095138677284	0.2080034550133249	-0.1658088977855579	0.002885754091880455	-0.01501090531672038	-0.3506055424754879	0.09969362197367228	0.03693115105803336	0.1719207942024553	-0.8182124284351399	-15.21091075572047	1.306654549472023	-20.01835398526885	-544.4570155179048	-59.57279985883758	-3.11273744686575	1.929503427886625	1.192015779480156	-0.1069358252477371	-3.197816530680704	0.7195227159593243	-0.3554817612188143	0.8377989974712253	-3.131609855916113	-3.131609855916015	-0.1389990387634595	0.750878381791994	-1.803985031775013	-0.04931592749162455	-4.265032828524049e-07	-4.219284723878208e-06	-3.379683188933778e-06	-1.29434482295394e-06	-3.926573870255922e-07	-3.442348421924078e-06	-2.202613941673392e-07
0.55	-0.325750991743769	-0.04257131000100805	0.6306589567355416	1.475754044873295	-0.4541592324031753	-0.1106815158449339	-0.2612810256278782	1.325957942828594	1.325957942828708	0.03232312224756506	-0.1679738399022298	0.3010798572872997	0.06162639741034831	-0.4588648846556207	-0.05069294402886647	-0.9111375919605195	2.864980751878645	-0.1873678819943524	0.7591224617890788	-0.02385417447546319	2.798582668371504	2.798582668371528	0.5322609341642427	-0.08524146687418779	0.6972586361534172	0.206904123969071	-0.1698523895217985	0.003072379247036837	-0.0156438388166421	-0.3577943452917808	0.09930924147442881	0.03647972110958923	0.175173350050162	-1.347440946570869	-14.73590980089479	1.018150928814691	-19.64877551692081	-551.026551969946	-59.17633475866398	-2.319197824920078	1.978380675949753	1.177578429842886	0.03321672193714397	-3.433102758692663	0.685953116010115	-0.5400877147613242	0.728252726290046	-3.351459388472638	-3.351459388438157	-0.1266280954578613	0.6171919514296642	-1.880655849143828	-0.1497398336921771	-3.636974715996776e-07	-4.007923419255539e-06	-3.540097702432132e-06	-1.271841043857593e-06	-3.683254567957441e-07	-3.702816008194956e-06	-1.44162534354116e-07
